<svg xmlns="http://www.w3.org/2000/svg">
    <!-- Definice symbolu pro LinkedIn -->
    <symbol id="linkedin" viewBox="0 0 16 16">
  <path d="M0 1.146C0 .513.526 0 1.175 0h13.65C15.474 0 16 .513 16 1.146v13.708c0 .633-.526 1.146-1.175 1.146H1.175C.526 16 0 15.487 0 14.854zm4.943 12.248V6.169H2.542v7.225zm-1.2-8.212c.837 0 1.358-.554 1.358-1.248-.015-.709-.52-1.248-1.342-1.248S2.4 3.226 2.4 3.934c0 .694.521 1.248 1.327 1.248zm4.908 8.212V9.359c0-.216.016-.432.08-.586.173-.431.568-.878 1.232-.878.869 0 1.216.662 1.216 1.634v3.865h2.401V9.25c0-2.22-1.184-3.252-2.764-3.252-1.274 0-1.845.7-2.165 1.193v.025h-.016l.016-.025V6.169h-2.4c.03.678 0 7.225 0 7.225z"/>
    </symbol> 
    <symbol id="instagram" viewBox="0 0 16 16">
     <path d="M8 0C5.829 0 5.556.01 4.703.048 3.85.088 3.269.222 2.76.42a3.9 3.9 0 0 0-1.417.923A3.9 3.9 0 0 0 .42 2.76C.222 3.268.087 3.85.048 4.7.01 5.555 0 5.827 0 8.001c0 2.172.01 2.444.048 3.297.04.852.174 1.433.372 1.942.205.526.478.972.923 1.417.444.445.89.719 1.416.923.51.198 1.09.333 1.942.372C5.555 15.99 5.827 16 8 16s2.444-.01 3.298-.048c.851-.04 1.434-.174 1.943-.372a3.9 3.9 0 0 0 1.416-.923c.445-.445.718-.891.923-1.417.197-.509.332-1.09.372-1.942C15.99 10.445 16 10.173 16 8s-.01-2.445-.048-3.299c-.04-.851-.175-1.433-.372-1.941a3.9 3.9 0 0 0-.923-1.417A3.9 3.9 0 0 0 13.24.42c-.51-.198-1.092-.333-1.943-.372C10.443.01 10.172 0 7.998 0zm-.717 1.442h.718c2.136 0 2.389.007 3.232.046.78.035 1.204.166 1.486.275.373.145.64.319.92.599s.453.546.598.92c.11.281.24.705.275 1.485.039.843.047 1.096.047 3.231s-.008 2.389-.047 3.232c-.035.78-.166 1.203-.275 1.485a2.5 2.5 0 0 1-.599.919c-.28.28-.546.453-.92.598-.28.11-.704.24-1.485.276-.843.038-1.096.047-3.232.047s-2.39-.009-3.233-.047c-.78-.036-1.203-.166-1.485-.276a2.5 2.5 0 0 1-.92-.598 2.5 2.5 0 0 1-.6-.92c-.109-.281-.24-.705-.275-1.485-.038-.843-.046-1.096-.046-3.233s.008-2.388.046-3.231c.036-.78.166-1.204.276-1.486.145-.373.319-.64.599-.92s.546-.453.92-.598c.282-.11.705-.24 1.485-.276.738-.034 1.024-.044 2.515-.045zm4.988 1.328a.96.96 0 1 0 0 1.92.96.96 0 0 0 0-1.92m-4.27 1.122a4.109 4.109 0 1 0 0 8.217 4.109 4.109 0 0 0 0-8.217m0 1.441a2.667 2.667 0 1 1 0 5.334 2.667 2.667 0 0 1 0-5.334"/>
    </symbol>
    <symbol id="gitHub" viewBox="0 0 16 16"><path d="M8 0C3.58 0 0 3.58 0 8c0 3.54 2.29 6.53 5.47 7.59.4.07.55-.17.55-.38 0-.19-.01-.82-.01-1.49-2.01.37-2.53-.49-2.69-.94-.09-.23-.48-.94-.82-1.13-.28-.15-.68-.52-.01-.53.63-.01 1.08.58 1.23.82.72 1.21 1.87.87 2.33.66.07-.52.28-.87.51-1.07-1.78-.2-3.64-.89-3.64-3.95 0-.87.31-1.59.82-2.15-.08-.2-.36-1.02.08-2.12 0 0 .67-.21 2.2.82.64-.18 1.32-.27 2-.27s1.36.09 2 .27c1.53-1.04 2.2-.82 2.2-.82.44 1.1.16 1.92.08 2.12.51.56.82 1.27.82 2.15 0 3.07-1.87 3.75-3.65 3.95.29.25.54.73.54 1.48 0 1.07-.01 1.93-.01 2.2 0 .21.15.46.55.38A8.01 8.01 0 0 0 16 8c0-4.42-3.58-8-8-8"/>
    </symbol>

    <symbol id="java">
<svg viewBox="0 0 32 32" fill="none" xmlns="http://www.w3.org/2000/svg"><g id="SVGRepo_bgCarrier" stroke-width="0"></g><g id="SVGRepo_tracerCarrier" stroke-linecap="round" stroke-linejoin="round"></g><g id="SVGRepo_iconCarrier"> <path d="M16.0497 8.44062C22.6378 3.32607 19.2566 0 19.2566 0C19.7598 5.28738 13.813 6.53583 12.2189 10.1692C11.1312 12.6485 12.9638 14.8193 16.0475 17.5554C15.7749 16.9494 15.3544 16.3606 14.9288 15.7645C13.4769 13.7313 11.9645 11.6132 16.0497 8.44062Z" fill="#E76F00"></path> <path d="M17.1015 18.677C17.1015 18.677 19.0835 17.0779 17.5139 15.3008C12.1931 9.27186 23.3333 6.53583 23.3333 6.53583C16.5317 9.8125 17.5471 11.7574 19.2567 14.1202C21.0871 16.6538 17.1015 18.677 17.1015 18.677Z" fill="#E76F00"></path> <path d="M22.937 23.4456C29.0423 20.3258 26.2195 17.3278 24.2492 17.7317C23.7662 17.8305 23.5509 17.9162 23.5509 17.9162C23.5509 17.9162 23.7302 17.64 24.0726 17.5204C27.9705 16.1729 30.9682 21.4949 22.8143 23.6028C22.8143 23.6029 22.9088 23.5198 22.937 23.4456Z" fill="#5382A1"></path> <path d="M10.233 19.4969C6.41312 18.9953 12.3275 17.6139 12.3275 17.6139C12.3275 17.6139 10.0307 17.4616 7.20592 18.8043C3.86577 20.3932 15.4681 21.1158 21.474 19.5625C22.0984 19.1432 22.9614 18.7798 22.9614 18.7798C22.9614 18.7798 20.5037 19.2114 18.0561 19.4145C15.0612 19.6612 11.8459 19.7093 10.233 19.4969Z" fill="#5382A1"></path> <path d="M11.6864 22.4758C9.55624 22.2592 10.951 21.2439 10.951 21.2439C5.43898 23.0429 14.0178 25.083 21.7199 22.8682C20.9012 22.5844 20.3806 22.0653 20.3806 22.0653C16.6163 22.7781 14.441 22.7553 11.6864 22.4758Z" fill="#5382A1"></path> <path d="M12.6145 25.6991C10.486 25.4585 11.7295 24.7474 11.7295 24.7474C6.72594 26.1222 14.7729 28.9625 21.1433 26.2777C20.0999 25.8787 19.3528 25.4181 19.3528 25.4181C16.5111 25.9469 15.1931 25.9884 12.6145 25.6991Z" fill="#5382A1"></path> <path d="M25.9387 27.3388C25.9387 27.3388 26.8589 28.0844 24.9252 28.6612C21.2481 29.7566 9.62093 30.0874 6.39094 28.7049C5.22984 28.2082 7.40723 27.5189 8.09215 27.3742C8.80646 27.2219 9.21466 27.2503 9.21466 27.2503C7.9234 26.3558 0.868489 29.0067 5.63111 29.7659C18.6195 31.8372 29.3077 28.8331 25.9387 27.3388Z" fill="#5382A1"></path> <path d="M28 28.9679C27.7869 31.6947 18.7877 32.2683 12.9274 31.8994C9.10432 31.6583 8.33812 31.0558 8.32691 31.047C11.9859 31.6402 18.1549 31.7482 23.1568 30.8225C27.5903 30.0016 28 28.9679 28 28.9679Z" fill="#5382A1"></path> </g></svg>
 </symbol>

 <symbol id="springBoot">
 <svg viewBox="0 0 256 256" version="1.1" xmlns="http://www.w3.org/2000/svg" xmlns:xlink="http://www.w3.org/1999/xlink" preserveAspectRatio="xMidYMid" fill="#000000"><g id="SVGRepo_bgCarrier" stroke-width="0"></g><g id="SVGRepo_tracerCarrier" stroke-linecap="round" stroke-linejoin="round"></g><g id="SVGRepo_iconCarrier"> <g> <path d="M38.9437824,35.879008 C89.5234256,-13.1200214 170.398168,-11.8028432 219.397197,39.0402357 C224.929346,31.6640377 229.671187,23.4975328 233.095851,15.0675923 C249.165425,64.0666217 258.912543,105.162582 255.224444,137.038295 C253.380395,163.90873 242.842969,189.725423 225.456217,210.273403 C180.145286,264.014274 99.53398,270.863601 45.7931091,225.55267 L45.7931091,225.55267 L44.765,224.638 L44.7103323,224.601984 C44.5420247,224.484832 44.376007,224.362668 44.2124952,224.235492 C43.7219599,223.853965 43.2765312,223.438607 42.8762093,222.995252 L42.732,222.831 L41.0512675,221.3377 C39.4121124,219.93271 37.7729573,218.52772 36.3188215,216.93771 L35.7825547,216.332423 C-13.2164747,165.752779 -11.6358609,84.8780374 38.9437824,35.879008 Z M57.9111486,207.375611 C53.169307,203.687512 46.3199803,204.214383 42.6318814,208.956225 C39.3888978,213.125775 39.4048731,218.924805 42.6798072,222.771269 L42.732,222.831 L44.765,224.638 L44.9644841,224.773953 C49.5691585,227.80174 55.7644273,227.175885 59.2982065,222.896387 L59.4917624,222.654878 C63.1798614,217.913037 62.3895545,211.06371 57.9111486,207.375611 Z M231.778672,28.2393744 C218.60689,55.9001168 185.940871,76.9749681 157.753257,83.5608592 C131.146257,89.8833146 107.963921,84.6146018 83.4644059,94.0982849 C27.6160498,115.436572 28.6697923,181.822354 59.2283268,196.838185 L59.2283268,196.838185 L61.0723763,197.891928 C61.0723763,197.891928 83.1456487,193.50309 104.973663,187.707242 L106.843514,187.207079 C115.561826,184.857554 124.138869,182.296538 131.146257,179.714869 C167.500376,166.279651 207.542593,133.08676 220.714375,94.6251562 C213.865049,134.667374 179.35498,173.392413 144.84491,191.042601 C126.404416,200.526284 112.178891,202.633769 81.883792,213.171195 C78.195693,214.488373 75.297901,215.805551 75.297901,215.805551 C75.6675607,215.754564 76.0372203,215.70481 76.4060145,215.65629 L77.1421925,215.560893 L77.1421925,215.560893 L77.8745239,215.468787 C84.5652297,214.639554 90.5771682,214.224938 90.5771682,214.224938 C133.517178,212.117452 200.956702,226.342977 232.305544,184.45671 C264.444692,141.780136 246.531068,72.7599979 231.778672,28.2393744 Z" fill="#6DB33F"> </path> <path d="M57.9111486,207.375611 C62.3895545,211.06371 63.1798614,217.913037 59.4917624,222.654878 C55.8036635,227.39672 48.9543368,227.923591 44.2124952,224.235492 C39.4706537,220.547393 38.9437824,213.698066 42.6318814,208.956225 C46.3199803,204.214383 53.169307,203.687512 57.9111486,207.375611 Z M231.778672,28.2393744 C246.531068,72.7599979 264.444692,141.780136 232.305544,184.45671 C200.956702,226.342977 133.517178,212.117452 90.5771682,214.224938 C90.5771682,214.224938 84.5652297,214.639554 77.8745239,215.468787 L77.1421925,215.560893 C76.5300999,215.63902 75.9140004,215.720572 75.297901,215.805551 C75.297901,215.805551 78.195693,214.488373 81.883792,213.171195 C112.178891,202.633769 126.404416,200.526284 144.84491,191.042601 C179.35498,173.392413 213.865049,134.667374 220.714375,94.6251562 C207.542593,133.08676 167.500376,166.279651 131.146257,179.714869 C106.119871,188.935116 61.0723763,197.891928 61.0723763,197.891928 L59.2283268,196.838185 C28.6697923,181.822354 27.6160498,115.436572 83.4644059,94.0982849 C107.963921,84.6146018 131.146257,89.8833146 157.753257,83.5608592 C185.940871,76.9749681 218.60689,55.9001168 231.778672,28.2393744 Z" fill="#FFFFFF"> </path> </g> </g></svg>
 </symbol>
 

 <symbol id="hibernate">
 <svg viewBox="-5.5 0 267 267" version="1.1" xmlns="http://www.w3.org/2000/svg" xmlns:xlink="http://www.w3.org/1999/xlink" preserveAspectRatio="xMidYMid" fill="#000000"><g id="SVGRepo_bgCarrier" stroke-width="0"></g><g id="SVGRepo_tracerCarrier" stroke-linecap="round" stroke-linejoin="round"></g><g id="SVGRepo_iconCarrier"> <g> <path d="M153.6714,178.9332 L152.7394,181.6902 L201.8764,265.0322 L204.6574,267.0002 L255.9994,178.2202 L204.6574,89.0832 L153.6714,178.9332 Z" fill="#59666C"> </path> <path d="M50.2731,0.3039 L0.0001,89.0839 L52.2341,178.9329 L101.9721,89.0839 L101.8381,85.4529 L52.5651,2.1099 L50.2731,0.3039 Z" fill="#59666C"> </path> <path d="M50.2731,0.3039 L101.9721,89.0839 L204.6571,89.0839 L152.6011,0.3039 L50.2731,0.3039 Z" fill="#BCAE79"> </path> <path d="M52.2342,178.9332 L102.8642,267.0002 L204.6572,267.0002 L153.6712,178.9332 L52.2342,178.9332 Z" fill="#BCAE79"> </path> </g> </g></svg>
 </symbol>

  <symbol id="htmlIcon">
 <svg viewBox="0 0 32 32" fill="none" xmlns="http://www.w3.org/2000/svg"><g id="SVGRepo_bgCarrier" stroke-width="0"></g><g id="SVGRepo_tracerCarrier" stroke-linecap="round" stroke-linejoin="round"></g><g id="SVGRepo_iconCarrier"> <path d="M6 28L4 3H28L26 28L16 31L6 28Z" fill="#E44D26"></path> <path d="M26 5H16V29.5L24 27L26 5Z" fill="#F16529"></path> <path d="M9.5 17.5L8.5 8H24L23.5 11H11.5L12 14.5H23L22 24L16 26L10 24L9.5 19H12.5L13 21.5L16 22.5L19 21.5L19.5 17.5H9.5Z" fill="white"></path> </g></svg>
 </symbol>
 
 <symbol id="cssIcon">
 <svg viewBox="0 0 32 32" fill="none" xmlns="http://www.w3.org/2000/svg"><g id="SVGRepo_bgCarrier" stroke-width="0"></g><g id="SVGRepo_tracerCarrier" stroke-linecap="round" stroke-linejoin="round"></g><g id="SVGRepo_iconCarrier"> <path d="M6 28L4 3H28L26 28L16 31L6 28Z" fill="#1172B8"></path> <path d="M26 5H16V29.5L24 27L26 5Z" fill="#33AADD"></path> <path d="M19.5 17.5H9.5L9 14L17 11.5H9L8.5 8.5H24L23.5 12L17 14.5H23L22 24L16 26L10 24L9.5 19H12.5L13 21.5L16 22.5L19 21.5L19.5 17.5Z" fill="white"></path> </g></svg>
 </symbol>

  <symbol id="phone">
 <svg  viewBox="0 0 512.001 512.001" xml:space="preserve" fill="#000000"><g id="SVGRepo_bgCarrier" stroke-width="0"></g><g id="SVGRepo_tracerCarrier" stroke-linecap="round" stroke-linejoin="round"></g><g id="SVGRepo_iconCarrier"> <path style="fill:#003F84;" d="M433.236,470.611l63.238-63.238c9.685-9.682,14.692-22.371,14.692-35.395 c0-13.021-5.008-25.71-14.692-35.395l-69.455-69.12c-19.031-19.366-51.088-19.366-70.79,0l-39.512,39.514l-11.686,11.686 c-6.678,6.344-6.678,17.03,0,23.374L433.236,470.611z"></path> <path style="fill:#144F9B;" d="M251.522,84.229l-69.455-69.453c-19.368-19.702-51.09-19.702-70.456,0L65.614,55.874L41.908,79.583 l128.874,128.57c6.465,6.45,16.933,6.443,23.391-0.013l11.686-12.021l45.664-41.432C271.221,135.319,271.221,103.597,251.522,84.229 z"></path> <path style="fill:#32BBFF;" d="M316.717,306.978l-11.686,11.686c-6.344,6.01-17.698,6.344-24.043,0l-86.816-87.485 c-6.678-6.678-6.632-16.408,0-23.04l11.686-12.021L65.614,55.874L41.908,79.583L30.553,91.269 c-19.7,19.367-29.718,42.407-29.718,67.785c0.334,68.786,73.127,141.579,131.896,200.014l19.702,19.7 c29.384,29.718,62.442,62.776,96.5,88.822c34.393,25.711,69.788,44.077,104.515,44.41c25.712,0,48.417-10.018,67.785-29.384 l35.395-35.395L316.717,306.978z"></path> <path style="fill:#2C9FD9;" d="M248.933,467.589c34.393,25.712,69.788,44.078,104.515,44.412c25.712,0,48.417-10.018,67.785-29.384 l35.395-35.395l-139.91-140.243l-11.686,11.686c-6.344,6.01-17.699,6.344-24.043,0l-43.076-43.406l-94.497,94.496l9.017,9.015 C181.817,408.487,214.875,441.544,248.933,467.589z"></path> </g></svg>
 </symbol>
 
 <symbol id="gmail">
 <svg viewBox="0 0 32 32" fill="none" xmlns="http://www.w3.org/2000/svg"><g id="SVGRepo_bgCarrier" stroke-width="0"></g><g id="SVGRepo_tracerCarrier" stroke-linecap="round" stroke-linejoin="round"></g><g id="SVGRepo_iconCarrier"> <path d="M2 11.9556C2 8.47078 2 6.7284 2.67818 5.39739C3.27473 4.22661 4.22661 3.27473 5.39739 2.67818C6.7284 2 8.47078 2 11.9556 2H20.0444C23.5292 2 25.2716 2 26.6026 2.67818C27.7734 3.27473 28.7253 4.22661 29.3218 5.39739C30 6.7284 30 8.47078 30 11.9556V20.0444C30 23.5292 30 25.2716 29.3218 26.6026C28.7253 27.7734 27.7734 28.7253 26.6026 29.3218C25.2716 30 23.5292 30 20.0444 30H11.9556C8.47078 30 6.7284 30 5.39739 29.3218C4.22661 28.7253 3.27473 27.7734 2.67818 26.6026C2 25.2716 2 23.5292 2 20.0444V11.9556Z" fill="white"></path> <path d="M22.0515 8.52295L16.0644 13.1954L9.94043 8.52295V8.52421L9.94783 8.53053V15.0732L15.9954 19.8466L22.0515 15.2575V8.52295Z" fill="#EA4335"></path> <path d="M23.6231 7.38639L22.0508 8.52292V15.2575L26.9983 11.459V9.17074C26.9983 9.17074 26.3978 5.90258 23.6231 7.38639Z" fill="#FBBC05"></path> <path d="M22.0508 15.2575V23.9924H25.8428C25.8428 23.9924 26.9219 23.8813 26.9995 22.6513V11.459L22.0508 15.2575Z" fill="#34A853"></path> <path d="M9.94811 24.0001V15.0732L9.94043 15.0669L9.94811 24.0001Z" fill="#C5221F"></path> <path d="M9.94014 8.52404L8.37646 7.39382C5.60179 5.91001 5 9.17692 5 9.17692V11.4651L9.94014 15.0667V8.52404Z" fill="#C5221F"></path> <path d="M9.94043 8.52441V15.0671L9.94811 15.0734V8.53073L9.94043 8.52441Z" fill="#C5221F"></path> <path d="M5 11.4668V22.6591C5.07646 23.8904 6.15673 24.0003 6.15673 24.0003H9.94877L9.94014 15.0671L5 11.4668Z" fill="#4285F4"></path> </g></svg>
 <symbol>


<symbol id="gitIcon">
<svg viewBox="0 0 24 24" xmlns="http://www.w3.org/2000/svg" fill="#e27d08" stroke="#e27d08" stroke-width="0.00024000000000000003"><g id="SVGRepo_bgCarrier" stroke-width="0"></g><g id="SVGRepo_tracerCarrier" stroke-linecap="round" stroke-linejoin="round" stroke="#CCCCCC" stroke-width="0.43200000000000005"></g><g id="SVGRepo_iconCarrier"> <title>git</title> <rect width="24" height="24" fill="none"></rect> <path d="M2.6,10.59,8.38,4.8l1.69,1.7A2,2,0,0,0,11,8.73v5.54A2,2,0,0,0,10,16a2,2,0,0,0,4,0,2,2,0,0,0-1-1.73V9.41l2.07,2.09A1.17,1.17,0,0,0,15,12a2,2,0,1,0,2-2,1.17,1.17,0,0,0-.5.07L13.93,7.5a2,2,0,0,0-1.15-2.34,2.1,2.1,0,0,0-1.28-.09L9.8,3.38l.79-.78a2,2,0,0,1,2.82,0l8,8a2,2,0,0,1,0,2.82l-8,8a2,2,0,0,1-2.82,0l-8-8A2,2,0,0,1,2.6,10.59Z"></path> </g></svg>

</symbol>

<symbol id="intellij">
<path fill="#1e88e5" d="M44 14.688L43.25 37.813 27.875 44 18.625 38 32.125 24z"></path><path fill="#2962ff" d="M44 14.688L31.812 29.063 26.25 11 31.563 4.625z"></path><path fill="#ab47bc" d="M34.688 19.625L23.25 37.188 7.25 43 9.813 34 13.125 22.875z"></path><path fill="#e91e63" d="M13.125 22.875L4 19.813 9.813 4 22.313 5.5 34.688 19.625z"></path><path fill="#000001" d="M11 11H36V36H11z"></path><path fill="#fff" d="M14 31.5H23V33H14zM20.5 15.875L20.5 14 15.5 14 15.5 15.875 17 15.875 17 22.375 15.5 22.375 15.5 24.25 20.5 24.25 20.5 22.375 19.159 22.375 19.159 15.875zM25.375 24.5c-1.875 0-2.871-1.098-3.25-1.548l1.411-1.605c.255.282.964 1.028 1.839 1.028 1.125 0 1.375-1.125 1.375-1.75V14H29v6.625c0 .624 0 1.625-.75 2.625C27.725 23.95 26.5 24.5 25.375 24.5z"></path>
</symbol>


 <symbol id="postgreSql">
 <svg viewBox="-4 0 264 264" version="1.1" xmlns="http://www.w3.org/2000/svg" xmlns:xlink="http://www.w3.org/1999/xlink" preserveAspectRatio="xMidYMid" fill="#000000"><g id="SVGRepo_bgCarrier" stroke-width="0"></g><g id="SVGRepo_tracerCarrier" stroke-linecap="round" stroke-linejoin="round"></g><g id="SVGRepo_iconCarrier"> <g> <path d="M255.007926,158.085617 C253.473109,153.437413 249.452194,150.199279 244.251788,149.42182 C241.799982,149.055852 238.991667,149.211935 235.668988,149.897164 C229.877358,151.092028 225.580342,151.546679 222.44449,151.635363 C234.280794,131.650217 243.905921,108.859714 249.446873,87.4065589 C258.406282,52.7182633 253.61855,36.9154365 248.023797,29.7669469 C233.217182,10.8477783 211.614448,0.683454965 185.55152,0.371879908 C171.649478,0.202198614 159.443658,2.94725173 153.077358,4.92075751 C147.149155,3.87547344 140.774577,3.29134411 134.08606,3.18315012 C121.550337,2.9833164 110.473164,5.71595381 101.008259,11.332582 C95.7670577,9.56127483 87.3580785,7.06335335 77.6460416,5.46882217 C54.8035104,1.71868822 36.3939769,4.64110855 22.9282587,14.153903 C6.62230023,25.6721293 -0.937090069,45.6838799 0.461154734,73.6339954 C0.904572748,82.5082679 5.86908083,109.507695 13.6850624,135.114199 C18.1771824,149.831538 22.9672794,162.053912 27.9223279,171.443732 C34.9490254,184.758688 42.4676212,192.600092 50.9085266,195.415501 C55.6400924,196.992296 64.2358984,198.09552 73.2774873,190.566873 C74.4232794,191.953885 75.9515935,193.33321 77.9812656,194.613801 C80.5578199,196.239076 83.7090439,197.566965 86.8555381,198.353885 C98.1969885,201.189395 108.820102,200.479926 117.882975,196.506309 C117.93855,198.117986 117.981709,199.658125 118.018365,200.987788 C118.07867,203.145164 118.137792,205.259972 118.217016,207.237617 C118.753848,220.612286 119.663741,231.011326 122.359723,238.286928 C122.507529,238.687778 122.706771,239.29733 122.917247,239.943538 C124.261691,244.062005 126.511298,250.955677 132.232573,256.355326 C138.158411,261.947714 145.325229,263.663446 151.888998,263.662855 C155.180933,263.662855 158.322106,263.231261 161.076619,262.640628 C170.897441,260.536462 182.050291,257.329663 190.118134,245.84218 C197.745515,234.981986 201.453672,218.625182 202.124711,192.851363 C202.211621,192.122975 202.292028,191.427104 202.369478,190.763751 C202.421506,190.316194 202.474716,189.858587 202.528517,189.402162 L204.325838,189.560018 L204.788767,189.591353 C214.791095,190.047187 227.021155,187.925875 234.532065,184.437062 C240.467363,181.68255 259.485857,171.642383 255.007926,158.085617" fill="#000000"> </path> <path d="M237.905589,160.722476 C208.165838,166.857016 206.121386,156.78788 206.121386,156.78788 C237.521885,110.194697 250.64824,51.0516028 239.320388,36.5766651 C208.417109,-2.90823095 154.921977,15.7655797 154.029229,16.2503834 L153.741894,16.3018199 C147.866309,15.0821247 141.290716,14.3555104 133.900416,14.2349007 C120.443566,14.0143741 110.236083,17.7627344 102.490457,23.636545 C102.490457,23.636545 7.06039723,-15.6768961 11.4987159,73.0806097 C12.4429007,91.9631224 38.5625866,215.954032 69.7171363,178.502947 C81.1041109,164.808425 92.1061986,153.229303 92.1061986,153.229303 C97.5708822,156.859418 104.112776,158.711132 110.970975,158.046005 L111.503667,157.593718 C111.338125,159.294079 111.413801,160.957192 111.717099,162.925968 C103.691233,171.893062 106.049626,173.467492 90.0055797,176.770069 C73.7711594,180.115806 83.308194,186.072388 89.5349654,187.629081 C97.0837136,189.516859 114.54788,192.190965 126.34812,175.672166 L125.877506,177.556988 C129.022226,180.075603 131.230448,193.940397 130.860342,206.508637 C130.490236,219.077469 130.243104,227.706383 132.720924,234.446337 C135.198744,241.186291 137.668286,256.351187 158.759612,251.831871 C176.383409,248.055132 185.516046,238.268009 186.786587,221.94254 C187.688203,210.336222 189.728517,212.051954 189.857404,201.675381 L191.493912,196.762901 C193.381099,181.029838 191.793663,175.95418 202.651492,178.314938 L205.290125,178.546697 C213.2817,178.9103 223.741044,177.261376 229.879723,174.408129 C243.098309,168.273589 250.93794,158.031224 237.904406,160.722476 L237.905589,160.722476" fill="#336791"> </path> <path d="M108.076342,81.5250624 C105.396915,81.152 102.969349,81.4972748 101.741376,82.426679 C101.050236,82.9499122 100.836804,83.5559169 100.779455,83.973321 C100.625145,85.0783187 101.399649,86.2997875 101.874993,86.9300323 C103.220619,88.7137552 105.18703,89.9399538 107.133339,90.2101432 C107.415353,90.249164 107.695594,90.2680831 107.974651,90.2680831 C111.220471,90.2680831 114.170679,87.7411917 114.430818,85.8758799 C114.755991,83.5399538 111.36473,81.9826697 108.076342,81.5250624" fill="#FFFFFF"> </path> <path d="M196.860453,81.5989654 L196.859861,81.5989654 C196.604453,79.7679446 193.345626,79.2458938 190.253524,79.6757136 C187.166152,80.1061247 184.171603,81.4996397 184.421691,83.3347991 C184.622707,84.7620139 187.19867,87.198448 190.249386,87.1978568 C190.506568,87.1978568 190.766707,87.1807113 191.028619,87.1440554 C193.064794,86.8620416 194.558818,85.5690346 195.268286,84.8235012 C196.349635,83.688351 196.974559,82.4219492 196.860453,81.5989654" fill="#FFFFFF"> </path> <path d="M247.802088,160.025423 C246.66812,156.596323 243.018494,155.492508 236.954309,156.745312 C218.949173,160.461155 212.501284,157.886965 210.38352,156.327908 C224.378975,135.007187 235.89188,109.236323 242.102688,85.1906513 C245.04521,73.8007206 246.670485,63.2231316 246.802919,54.601903 C246.949543,45.1375889 245.338457,38.1842032 242.014005,33.9362587 C228.611547,16.8108637 208.942115,7.62501617 185.131751,7.37256351 C168.763122,7.18869284 154.93321,11.3781062 152.252009,12.5558245 C146.60582,11.1516674 140.450587,10.2896628 133.750245,10.1796952 C121.461654,9.98104388 110.840314,12.9229746 102.045857,18.9191686 C98.2259584,17.4978661 88.3536998,14.10897 76.2814965,12.1644342 C55.4089238,8.80332564 38.8233164,11.3497275 26.9870115,19.7350577 C12.8638522,29.740933 6.34383372,47.626642 7.60727945,72.8943741 C8.03236952,81.3961755 12.8756767,107.547788 20.5202032,132.593219 C30.5822448,165.556915 41.5192979,184.218309 53.0280647,188.056536 C54.374873,188.505866 55.9286097,188.820397 57.6407945,188.820397 C61.8390762,188.820397 66.9856813,186.927889 72.3409885,180.490051 C81.2359538,169.788896 89.5408776,160.821801 92.6022356,157.563566 C97.1262818,159.992314 102.09552,161.347991 107.179455,161.483972 C107.188323,161.616998 107.201921,161.750023 107.213746,161.882457 C106.193885,163.092102 105.357303,164.152166 104.644286,165.05733 C101.122365,169.528166 100.389247,170.458753 89.0519353,172.793497 C85.8273995,173.458624 77.2611547,175.224018 77.1364065,181.227898 C76.9998337,187.787529 87.2605266,190.542633 88.4299677,190.834697 C92.5040924,191.854559 96.4286374,192.357691 100.171677,192.357691 C109.275344,192.357099 117.285838,189.365506 123.688203,183.576831 C123.490734,206.962697 124.466254,230.006836 127.273977,237.028212 C129.573247,242.775501 135.191649,256.822984 152.93842,256.821801 C155.54158,256.821801 158.408425,256.519095 161.561423,255.843326 C180.082106,251.872074 188.124527,243.686577 191.236139,225.640055 C192.901025,215.995418 195.758411,192.963695 197.101672,180.610069 C199.937774,181.49454 203.589173,181.899529 207.536185,181.898938 C215.768388,181.898938 225.266993,180.150097 231.224166,177.384942 C237.91564,174.277469 249.991982,166.650679 247.802088,160.025423 L247.802088,160.025423 Z M203.696185,76.5445912 C203.634697,80.1918522 203.132748,83.5027067 202.600647,86.9590023 C202.028342,90.6760277 201.435935,94.5189838 201.286947,99.1843326 C201.139732,103.724342 201.706716,108.444674 202.255372,113.008924 C203.363326,122.228471 204.500249,131.720573 200.098587,141.086744 C199.41454,139.871778 198.754143,138.546254 198.14873,137.078245 C197.601848,135.752129 196.414079,133.621949 194.769885,130.673515 C188.370476,119.197857 173.385312,92.3243603 181.056443,81.3583372 C183.340933,78.0935982 189.139658,74.7384018 203.696185,76.5445912 L203.696185,76.5445912 Z M186.052286,14.7581339 C207.386014,15.2293395 224.261321,23.2102725 236.209958,38.4780416 C245.373931,50.1890069 235.282919,103.476028 206.069949,149.446651 C205.781432,149.080092 205.487594,148.709986 205.183704,148.33042 C205.062503,148.178476 204.938938,148.024166 204.814189,147.868083 C212.362938,135.400942 210.886651,123.066236 209.572952,112.129774 C209.033164,107.641792 208.523529,103.402716 208.653007,99.4214134 C208.787215,95.2000739 209.34533,91.5811917 209.884527,88.0811455 C210.548471,83.7675751 211.223058,79.3050162 211.036822,74.0437136 C211.17576,73.4921016 211.231926,72.8399815 211.159206,72.0660693 C210.683861,67.0205635 204.924157,51.9224758 193.18363,38.2551501 C186.762346,30.7808961 177.396767,22.4156674 164.609774,16.7736166 C170.109931,15.6337367 177.631483,14.5707159 186.052286,14.7581339 L186.052286,14.7581339 Z M66.6741062,175.777995 C60.7742818,182.871501 56.6995658,181.512277 55.3598522,181.065903 C46.6292471,178.153533 36.499806,159.702023 27.568776,130.441755 C19.8408868,105.123769 15.3245266,79.6650716 14.9674273,72.5260416 C13.8387806,49.9483788 19.3117413,34.2129515 31.2349561,25.7572656 C50.6389284,11.9965266 82.5413764,20.2328684 95.3602956,24.4104573 C95.1758337,24.591963 94.9842771,24.7622356 94.8015889,24.9466975 C73.7664296,46.1911501 74.2654226,82.4875751 74.3168591,84.7058476 C74.3150855,85.56194 74.3866236,86.7739492 74.485358,88.4412009 C74.8471871,94.5455889 75.5205912,105.907732 73.7214965,118.775132 C72.0489238,130.732046 75.7346143,142.435326 83.8320185,150.883917 C84.6703741,151.758337 85.5453857,152.579547 86.4493672,153.352277 C82.8446744,157.212379 75.0115473,165.74788 66.6741062,175.777995 L66.6741062,175.777995 Z M89.1530346,145.78461 C82.6265127,138.975483 79.6627067,129.503483 81.020157,119.795584 C82.920351,106.202753 82.2185681,94.3646744 81.8419584,88.0048776 C81.7893395,87.1150855 81.7426328,86.335261 81.7148453,85.7197968 C84.7880277,82.9954365 99.0288406,75.3645081 109.184296,77.6915658 C113.819492,78.7534042 116.642587,81.9087667 117.816758,87.3373857 C123.893358,115.440037 118.621413,127.153367 114.385293,136.565654 C113.512055,138.504868 112.687298,140.337663 111.982559,142.234309 L111.436859,143.699954 C110.054577,147.406337 108.768665,150.851991 107.971695,154.124416 C101.034273,154.103132 94.2848591,151.139917 89.1530346,145.78461 L89.1530346,145.78461 Z M90.2178291,183.685025 C88.1922956,183.178938 86.3701432,182.299788 85.3012102,181.570808 C86.1939584,181.150448 87.7831686,180.579326 90.5388637,180.011751 C103.876286,177.265515 105.93552,175.328074 110.433552,169.61685 C111.465238,168.30788 112.634088,166.823316 114.252859,165.015353 C114.25345,165.014171 114.254042,165.01358 114.254633,165.012988 C116.666236,162.31346 117.768868,162.771067 119.768979,163.600554 C121.390115,164.271594 122.968684,166.303039 123.608979,168.539048 C123.911686,169.594975 124.252231,171.599815 123.138956,173.158873 C113.742633,186.31479 100.051067,186.1457 90.2178291,183.685025 L90.2178291,183.685025 Z M160.016554,248.637487 C143.700545,252.133395 137.923695,243.80837 134.116804,234.291436 C131.659677,228.146845 130.452397,200.440314 131.309081,169.84388 C131.320314,169.436527 131.262374,169.043363 131.150042,168.673848 C131.05249,167.96024 130.902319,167.238356 130.694208,166.511741 C129.419529,162.059824 126.315012,158.335704 122.5903,156.792018 C121.110467,156.178919 118.393792,155.05382 115.129644,155.888628 C115.826106,153.0206 117.033386,149.782467 118.341764,146.275326 L118.891012,144.79963 C119.509432,143.136517 120.284527,141.413691 121.105145,139.590356 C125.538143,129.741746 131.609423,116.25297 125.020231,85.7795104 C122.551871,74.3659307 114.310208,68.7924619 101.815871,70.0866513 C94.3250624,70.861746 87.472776,73.8840831 84.0549099,75.6169607 C83.3200185,75.9894319 82.6477968,76.3488961 82.0199169,76.6994919 C82.9735612,65.1990023 86.578254,43.707418 100.060527,30.1098568 C108.54873,21.548933 119.854115,17.3210901 133.628453,17.5487113 C160.768591,17.9933118 178.172453,31.9213672 187.994457,43.5276859 C196.457829,53.5294226 201.040998,63.6038799 202.870245,69.0372286 C189.115418,67.6389838 179.76048,70.3544758 175.017681,77.1340416 C164.700822,91.8815335 180.662097,120.506236 188.333229,134.262836 C189.739751,136.784406 190.954125,138.963067 191.336055,139.888924 C193.833977,145.943058 197.067972,149.984665 199.429321,152.935464 C200.152979,153.839446 200.855353,154.716231 201.389229,155.481866 C197.223464,156.683233 189.740342,159.457848 190.422023,173.328554 C189.872185,180.289035 185.960647,212.874938 183.974134,224.387843 C181.351464,239.597672 175.754346,245.263372 160.016554,248.637487 L160.016554,248.637487 Z M228.120831,170.700564 C223.861062,172.678208 216.732083,174.161589 209.959612,174.479667 C202.479446,174.830263 198.671963,173.641903 197.776259,172.91115 C197.355307,164.267455 200.573339,163.364065 203.978199,162.408055 C204.513256,162.257293 205.035307,162.111261 205.53903,161.935076 C205.852379,162.189894 206.195289,162.442938 206.570716,162.690661 C212.582873,166.658956 223.306494,167.087002 238.444785,163.962383 C238.50036,163.950559 238.555935,163.939917 238.610919,163.928684 C236.569423,165.837746 233.075289,168.400111 228.120831,170.700564 L228.120831,170.700564 Z" fill="#FFFFFF"> </path> </g> </g></svg>
 </symbol>

</svg>